<svg xmlns="http://www.w3.org/2000/svg" width="146" height="24" viewBox="0 0 146 24"><defs><clipPath id="t9jfa"><path fill="#fff" d="M13 .016l-2.925 9.352L.001 9.175l8.267 5.588-3.302 9.234 8.034-5.9 8.034 5.9-3.302-9.234L26 9.175l-10.074.193z"/></clipPath></defs><g><g><g><path fill="none" stroke="#3cd072" stroke-miterlimit="20" stroke-width="2" d="M13 .016v0l-2.925 9.352v0L.001 9.175v0l8.267 5.588v0l-3.302 9.234v0l8.034-5.9v0l8.034 5.9v0l-3.302-9.234v0L26 9.175v0l-10.074.193v0z" clip-path="url(&quot;#t9jfa&quot;)"/></g><g><path fill="#b3b3b3" d="M135.925 9.31l10.074-.193-8.267 5.61 3.302 9.27L133 18.075l-8.034 5.922 3.302-9.27L120 9.117l10.074.193L133-.078zm-90 .038l10.074-.192-8.267 5.595 3.302 9.246L43 18.09l-8.034 5.907 3.302-9.246L30 9.156l10.074.192L43-.016zm30-.019l10.074-.192-8.267 5.602 3.302 9.258L73 18.082l-8.034 5.915 3.302-9.258L60 9.137l10.074.192L73-.047zm30-.019l10.074-.193-8.267 5.61 3.302 9.27L103 18.075l-8.034 5.922 3.302-9.27L90 9.117l10.074.193L103-.078z"/></g></g></g></svg>