<svg width="146" height="24" viewBox="0 0 146 24" fill="none" xmlns="http://www.w3.org/2000/svg">
<path d="M15.925 9.368L25.999 9.175L17.732 14.763L21.034 23.997L13 18.097L4.966 23.997L8.268 14.763L0 9.175L10.074 9.368L13 0.0159971L15.925 9.368ZM45.925 9.348L55.999 9.156L47.732 14.751L51.034 23.997L43 18.09L34.966 23.997L38.268 14.751L30 9.156L40.074 9.349L43 -0.0160029L45.925 9.348ZM75.925 9.329L85.999 9.137L77.732 14.739L81.034 23.997L73 18.082L64.966 23.997L68.268 14.739L60 9.137L70.074 9.329L73 -0.0470029L75.925 9.329ZM105.925 9.31L115.999 9.117L107.732 14.727L111.034 23.997L103 18.075L94.966 23.997L98.268 14.727L90 9.117L100.074 9.31L103 -0.0780029L105.925 9.31ZM135.925 9.31L145.999 9.117L137.732 14.727L141.034 23.997L133 18.075L124.966 23.997L128.268 14.727L120 9.117L130.074 9.31L133 -0.0780029L135.925 9.31Z" fill="white" stroke="#3CD072" stroke-width="2" stroke-miterlimit="20"/>
</svg>
