<svg xmlns="http://www.w3.org/2000/svg" width="216" height="48" viewBox="0 0 216 48"><g><g><g><path fill="#0d0d0d" d="M4.774-.013L211 0c2.641 0 5 2.356 5 5v38c0 2.644-2.359 5-5 5l-206.226.007A4.785 4.785 0 0 1-.01 43.22V4.775A4.785 4.785 0 0 1 4.774-.013z"/></g><g><path fill="#fff" d="M60.226 23.07c.048 5.14 4.73 6.852 4.783 6.875-.043.119-.75 2.437-2.468 4.832-1.486 2.07-3.025 4.132-5.453 4.173-2.387.043-3.155-1.348-5.882-1.348s-3.58 1.307-5.837 1.39c-2.345.084-4.128-2.237-5.625-4.298-3.062-4.218-5.4-11.92-2.26-17.121 1.56-2.582 4.348-4.216 7.374-4.258 2.3-.041 4.473 1.476 5.88 1.476 1.406 0 4.046-1.826 6.821-1.558 1.162.048 4.422.448 6.516 3.37-.167.1-3.892 2.166-3.85 6.467m-4.484-12.627c-1.245 1.436-3.287 2.553-5.285 2.405-.273-1.95.736-3.984 1.89-5.256 1.286-1.435 3.456-2.505 5.248-2.574.23 1.99-.608 3.988-1.853 5.425"/></g><g><g><g><text fill="#fff" style="line-height:21px" dominant-baseline="text-before-edge" font-family="'LucidaGrande','LucidaGrande'" font-size="20" font-style="none" font-weight="400" transform="translate(81 22)"><tspan letter-spacing="-.7" style="font-kerning:normal">A</tspan><tspan letter-spacing="-.7" style="font-kerning:normal">p</tspan><tspan letter-spacing="-.7" style="font-kerning:normal">p</tspan><tspan letter-spacing="-.7" style="font-kerning:normal"> </tspan><tspan letter-spacing="-.7" style="font-kerning:normal">S</tspan><tspan letter-spacing="-.7" style="font-kerning:normal">t</tspan><tspan letter-spacing="-.7" style="font-kerning:normal">o</tspan><tspan letter-spacing="-.7" style="font-kerning:normal">r</tspan><tspan letter-spacing="-.7" style="font-kerning:normal">e</tspan></text></g></g><g><g><text fill="#fff" style="line-height:21px" dominant-baseline="text-before-edge" font-family="'LucidaGrande','LucidaGrande'" font-size="11" font-style="none" font-weight="400" transform="translate(83 9)"><tspan letter-spacing="-.39" style="font-kerning:normal">Soon on the</tspan></text></g></g></g></g></g></svg>